<svg width="20" height="20" viewBox="0 0 20 20" fill="none" xmlns="http://www.w3.org/2000/svg">
<path fill-rule="evenodd" clip-rule="evenodd" d="M2 0C0.895432 0 0 0.895447 0 2V18C0 19.1046 0.895432 20 2 20H18C19.1046 20 20 19.1046 20 18V2C20 0.895447 19.1046 0 18 0H2ZM4.24312 8.06403V16H6.59512V8.06403H4.24312ZM4.45113 6.56C4.69646 6.784 5.01646 6.896 5.41113 6.896C5.80579 6.896 6.12579 6.784 6.37112 6.56C6.61646 6.336 6.73912 6.03735 6.73912 5.664C6.73912 5.29065 6.61646 4.992 6.37112 4.76801C6.12579 4.54401 5.80579 4.43201 5.41113 4.43201C5.01646 4.43201 4.69646 4.54401 4.45113 4.76801C4.2058 4.992 4.08313 5.29065 4.08313 5.664C4.08313 6.03735 4.2058 6.336 4.45113 6.56ZM8.68062 8.06403V16H11.0326V10.64C11.2886 10.3947 11.5233 10.208 11.7366 10.08C11.95 9.94135 12.206 9.87201 12.5046 9.87201C12.846 9.87201 13.0913 9.97864 13.2406 10.192C13.4006 10.4053 13.4806 10.8 13.4806 11.376V16H15.8326V11.072C15.8326 10.08 15.6406 9.30133 15.2566 8.73602C14.8726 8.15997 14.2433 7.87201 13.3686 7.87201C12.8353 7.87201 12.3606 7.98932 11.9446 8.224C11.5286 8.45868 11.1553 8.74133 10.8246 9.07202H10.7606L10.6006 8.06403H8.68062Z" fill="#607B96"/>
</svg>
